PathFileType	4	(X/Y/Z)	Run_200 02
DataRate	CameraRate	NumFrames	NumMarkers	Units	OrigDataRate	OrigDataStartFrame	OrigNumFrames
120	120	7	41	mm	120	179	125
Frame#	Time	LASI			RASI			LPSI			RPSI			RTH1			RTH3			LTH1			LTH2			LTH3			RTB1			RTB2			RTB3			LTB1			LTB2			LTB3			RCAL			RTOE			RMT5			LCAL			LTOE			LMT5			LACR			RACR			CLAV			C7			RUA1			RUA2			RUA3			RLEL			RMEL			LUA1			LUA2			LUA3			LLEL			LMEL			RFAsuperior			RFAradius			RFAulna			LFAsuperior			LFAradius			LFAulna			
		X1	Y1	Z1	X2	Y2	Z2	X3	Y3	Z3	X4	Y4	Z4	X5	Y5	Z5	X6	Y6	Z6	X7	Y7	Z7	X8	Y8	Z8	X9	Y9	Z9	X10	Y10	Z10	X11	Y11	Z11	X12	Y12	Z12	X13	Y13	Z13	X14	Y14	Z14	X15	Y15	Z15	X16	Y16	Z16	X17	Y17	Z17	X18	Y18	Z18	X19	Y19	Z19	X20	Y20	Z20	X21	Y21	Z21	X22	Y22	Z22	X23	Y23	Z23	X24	Y24	Z24	X25	Y25	Z25	X26	Y26	Z26	X27	Y27	Z27	X28	Y28	Z28	X29	Y29	Z29	X30	Y30	Z30	X31	Y31	Z31	X32	Y32	Z32	X33	Y33	Z33	X34	Y34	Z34	X35	Y35	Z35	X36	Y36	Z36	X37	Y37	Z37	X38	Y38	Z38	X39	Y39	Z39	X40	Y40	Z40	X41	Y41	Z41	

179	2.258333	895.87407	1038.728739	-385.659571	903.173871	1047.175012	-157.48175	741.219435	1084.518871	-317.105494	736.1867559999999	1086.823193	-219.608963	879.039793	889.7472330000001	-91.007645	965.954475	644.275254	-142.294706	804.357705	852.7139570000001	-435.251106	819.576331	738.161204	-407.59703	711.382519	652.688583	-382.891553	1018.259547	421.473549	-208.280437	970.063193	370.98807	-144.226991	979.302055	305.530327	-210.579237	669.1313699999999	426.765312	-299.443942	593.721782	377.908888	-366.382447	583.285765	279.59929	-295.630383	845.684346	153.683775	-213.532682	1053.980104	126.500385	-237.531264	1031.566368	110.268388	-144.713481	431.917259	208.659457	-290.159042	588.641814	81.29929	-244.518819	570.504464	63.767834	-331.693089	901.339059	1511.181274	-449.293585	807.3478270000001	1509.286003	-75.96871400000001	913.780895	1497.655082	-224.079171	801.570982	1554.807405	-285.755418	700.350193	1420.233922	-34.91408	643.151489	1440.800279	-80.302734	627.141209	1370.622777	-18.909699	565.372598	1327.300374	-10.985425	548.085073	1315.288793	-91.070035	864.216965	1378.540628	-519.127042	799.427828	1333.1955	-535.205159	867.787597	1291.725552	-535.557944	831.579026	1216.597539	-567.547018	766.222741	1211.538766	-506.436233	624.552872	1213.970572	-6.650992	682.918962	1114.115397	-51.600851	624.817155	1086.807141	-22.711296	936.61898	1199.355505	-493.722351	987.471733	1230.704494	-382.878908	1014.291038	1172.679328	-411.523743	
180	2.266667	898.004819	1042.379239	-384.959157	904.819719	1050.425129	-157.263699	743.5919249999999	1089.369538	-317.031698	738.485172	1091.28016	-219.413175	877.933077	892.109116	-91.373442	962.049023	645.256259	-142.901085	804.836687	857.4820570000001	-435.58962	818.477685	742.498456	-408.369014	709.192762	658.471477	-383.497834	1021.580379	422.72515	-209.843728	976.812091	369.370695	-145.781997	989.295204	304.870497	-212.946432	663.9740849999999	432.446142	-301.335388	587.519748	385.132401	-368.128179	576.822767	285.874968	-298.205573	864.679518	144.973876	-216.104076	1074.110875	131.510063	-241.560058	1053.290236	112.560945	-149.004374	426.427857	219.204976	-292.720382	575.892278	83.856163	-245.873091	557.002191	66.100301	-332.975029	902.450293	1515.513282	-448.252159	807.1244819999999	1513.375848	-76.12893200000001	914.091166	1501.44469	-223.36783	801.842112	1558.152407	-285.446998	699.412784	1425.072354	-35.668618	643.209085	1445.489822	-82.393463	625.999185	1376.179383	-20.1836	563.997263	1332.760732	-12.870037	547.849914	1320.428636	-93.208026	866.109349	1383.867299	-519.223712	801.511412	1338.761989	-536.017875	870.116971	1297.26878	-536.734358	833.829489	1222.094584	-568.9299	767.773134	1216.832777	-508.467321	623.380047	1219.497803	-7.943649	682.342527	1119.761931	-52.335013	624.209072	1092.084442	-23.840941	937.899666	1205.026387	-493.588128	987.0653150000001	1236.323525	-382.008385	1014.645994	1178.608754	-410.384295	
181	2.275	899.90079	1045.537289	-384.121499	906.240998	1052.806931	-157.070356	745.58367	1093.546226	-316.807492	740.485274	1094.883692	-219.2655	876.573632	893.503552	-91.756445	958.170752	645.621793	-143.362643	805.446863	861.801242	-435.892065	818.040535	746.283578	-409.141207	708.128163	663.279956	-384.165294	1024.301012	423.717233	-211.335183	982.807271	367.951795	-147.251784	998.251907	304.391234	-214.939222	659.989056	437.142557	-303.091503	582.417815	391.51187	-369.713147	570.899682	291.563821	-300.484276	882.48774	137.373387	-218.438599	1092.135507	137.118376	-245.212336	1073.107703	115.598722	-152.986486	421.420275	229.598449	-295.26327	563.459467	86.930789	-247.193313	543.9166310000001	69.172196	-334.446703	903.390487	1519.180004	-447.19981	807.156841	1516.826246	-76.177323	914.503365	1504.582025	-222.701401	802.13336	1560.870508	-285.039009	698.859651	1429.088607	-36.307654	643.574475	1449.320345	-84.231791	625.262617	1380.685117	-21.418028	563.141573	1337.160538	-14.542683	548.08913	1324.547323	-95.154054	867.622892	1388.568736	-519.270276	803.16673	1343.654369	-536.563144	872.015758	1302.176989	-537.996355	835.6013819999999	1226.890017	-570.12655	769.115042	1221.429862	-510.195274	622.759115	1223.975367	-9.043519999999999	682.34938	1124.456068	-52.873347	624.214969	1096.348211	-24.821076	938.7920329999999	1209.811403	-493.476448	986.490143	1240.988652	-381.246576	1014.685157	1183.515737	-409.518025	
182	2.283333	901.602369	1048.242735	-383.33133	907.412783	1054.329801	-156.815166	747.20709	1096.944116	-316.385731	742.076423	1097.536714	-219.131047	875.3563329999999	893.997146	-92.047315	954.438726	645.345611	-143.766309	806.230805	865.572333	-436.140616	818.307971	749.435164	-409.822831	708.20797	666.9144219999999	-384.935419	1026.475889	424.451861	-212.813287	987.901788	366.691389	-148.613353	1006.061179	304.062995	-216.669343	657.211645	440.734296	-304.602078	578.5074090000001	396.914659	-371.197553	565.560329	296.602424	-302.375837	898.678268	130.906233	-220.526595	1107.77144	142.925426	-248.408174	1090.653526	119.08354	-156.510839	416.830488	239.679432	-297.699784	551.333018	90.295176	-248.403845	531.146481	72.693215	-335.847645	904.1952230000001	1522.124494	-446.128071	807.45001	1519.557703	-76.055232	915.03559	1507.014452	-222.050804	802.458458	1562.915014	-284.489732	698.70897	1432.203768	-36.785173	644.202587	1452.225897	-85.74163	624.923433	1384.078193	-22.536644	562.792381	1340.433315	-15.950605	548.660698	1327.626977	-96.80882699999999	868.770998	1392.538345	-519.257491	804.397391	1347.784991	-536.840068	873.48068	1306.361167	-539.328357	836.8774529999999	1230.895676	-571.113498	770.203479	1225.253681	-511.59546	622.712863	1227.346178	-9.929284000000001	682.955371	1127.996636	-53.257481	624.820389	1099.56967	-25.619106	939.292265	1213.636222	-493.365017	985.7575419999999	1244.651616	-380.555249	1014.418461	1187.306019	-408.83041	
183	2.291667	903.164407	1050.566771	-382.807738	908.312594	1055.060724	-156.463186	748.5314949999999	1099.485007	-315.855328	743.229653	1099.142697	-218.927613	874.473941	893.706759	-92.171835	950.901376	644.410779	-144.20381	807.261024	868.646183	-436.318751	819.328715	751.871635	-410.345596	709.433219	669.25558	-385.821324	1028.15455	424.919162	-214.338691	992.073937	365.545773	-149.885688	1012.67056	303.835006	-218.268216	655.585626	443.185889	-305.867597	575.838899	401.279332	-372.644748	560.835634	300.978399	-303.882728	912.837363	125.599885	-222.314339	1120.845509	148.445887	-251.253112	1105.623953	122.657542	-159.52871	412.630497	249.339085	-299.963902	539.515885	93.753407	-249.506165	518.555844	76.344858	-336.953011	904.889333	1524.285348	-445.060145	808.004866	1521.513092	-75.711028	915.698569	1508.728354	-221.407895	802.847237	1564.278071	-283.787783	698.955334	1434.349131	-37.071467	645.056494	1454.168287	-86.849152	625.008811	1386.356443	-23.400468	562.940768	1342.535948	-17.052578	549.515812	1329.613444	-98.083697	869.568326	1395.673058	-519.177013	805.206186	1351.07166	-536.86509	874.511133	1309.741549	-540.702274	837.649772	1234.036074	-571.879728	770.964603	1228.255323	-512.651978	623.2516450000001	1229.580373	-10.595869	684.152471	1130.25834	-53.549987	626.007437	1101.723973	-26.215424	939.397712	1216.43337	-493.226538	984.895479	1247.273944	-379.920635	1013.847397	1189.921203	-408.205494	
184	2.3	904.613518	1052.508325	-382.628794	908.925693	1055.113657	-156.042014	749.653654	1101.102803	-315.384544	743.991484	1099.675929	-218.619897	873.9249	892.804062	-92.10875	947.607499	642.887022	-144.729924	808.611252	870.854599	-436.403688	821.133479	753.499038	-410.644725	711.783124	670.258781	-386.814511	1029.355685	425.085949	-215.959377	995.418426	364.479273	-151.125261	1018.034315	303.623216	-219.860765	655.01572	444.516975	-306.98685	574.358219	404.620652	-374.034316	556.724206	304.710493	-305.107986	924.5953029999999	121.414309	-223.803343	1131.289284	153.170752	-253.935592	1117.786738	125.97366	-162.103497	408.854511	258.544431	-302.043469	528.000456	97.19020999999999	-250.533183	506.044678	79.9183	-337.665145	905.4830439999999	1525.620865	-444.036717	808.814786	1522.672416	-75.127285	916.492801	1509.739476	-220.78474	803.338085	1564.996135	-282.953699	699.577033	1435.489772	-37.138187	646.1095790000001	1455.137385	-87.49898399999999	625.551613	1387.547098	-23.877358	563.579179	1343.45165	-17.823722	550.696496	1330.453023	-98.953214	870.024622	1397.894169	-519.01794	805.595356	1353.451108	-536.664704	875.097507	1312.249883	-542.068718	837.920959	1236.265665	-572.434705	771.322485	1230.42254	-513.38087	624.3652520000001	1230.677685	-11.039564	685.910221	1131.280951	-53.771962	627.7589809999999	1102.794504	-26.609819	939.106822	1218.154023	-493.038541	983.957485	1248.829353	-379.34587	1012.97285	1191.350259	-407.57751	
185	2.308333	905.927607	1053.951484	-382.658189	909.259361	1054.614306	-155.597743	750.6401499999999	1101.750323	-315.101444	744.4395050000001	1099.205837	-218.26665	873.60832	891.449487	-91.87539599999999	944.657276	640.930975	-145.364031	810.349424	872.050977	-436.380589	823.725339	754.2198509999999	-410.646542	715.216421	669.928052	-387.894219	1030.063716	424.885016	-217.720385	998.061151	363.42895	-152.41133	1022.077485	303.288267	-221.551562	655.4159100000001	444.770367	-308.098777	573.93273	407.008044	-375.27713	553.211944	307.831742	-306.190996	933.6756800000001	118.161404	-225.10716	1139.106518	156.642243	-256.565361	1126.984632	128.718245	-164.357457	405.601619	267.319483	-303.986055	516.752404	100.570693	-251.496697	493.590188	83.376555	-338.032088	905.978969	1526.129805	-443.115109	809.872406	1523.047295	-74.326004	917.408789	1510.063799	-220.204321	803.962033	1565.13179	-282.021097	700.550621	1435.623313	-36.95197	647.342273	1455.136339	-87.666269	626.560771	1387.661703	-23.910932	564.699269	1343.182113	-18.249258	552.263919	1330.124475	-99.44885600000001	870.140554	1399.161883	-518.771059	805.571448	1354.890478	-536.2643859999999	875.224992	1313.833407	-543.351535	837.696826	1237.576105	-572.791411	771.213715	1231.78328	-513.808255	626.029613	1230.654261	-11.253201	688.194622	1131.217901	-53.886247	630.062308	1102.761848	-26.821142	938.422159	1218.779009	-492.78704	983.006177	1249.3001	-378.83361	1011.806015	1191.616955	-406.956542	
